<?xml version="1.0" standalone="no"?><!DOCTYPE svg PUBLIC "-//W3C//DTD SVG 1.1//EN" "http://www.w3.org/Graphics/SVG/1.1/DTD/svg11.dtd"><svg t="1735784005425" class="icon" viewBox="0 0 1024 1024" version="1.1" xmlns="http://www.w3.org/2000/svg" p-id="21795" xmlns:xlink="http://www.w3.org/1999/xlink" width="200" height="200"><path d="M640 42.666667a85.333333 85.333333 0 0 1 85.333333 85.333333h42.666667a128 128 0 0 1 128 128v597.333333a128 128 0 0 1-128 128H256a128 128 0 0 1-128-128V256a128 128 0 0 1 128-128h42.666667a85.333333 85.333333 0 0 1 85.333333-85.333333h256z m0 256H384a85.333333 85.333333 0 0 1-85.333333-85.333334H256a42.666667 42.666667 0 0 0-42.666667 42.666667v597.333333a42.666667 42.666667 0 0 0 42.666667 42.666667h512a42.666667 42.666667 0 0 0 42.666667-42.666667V256a42.666667 42.666667 0 0 0-42.666667-42.666667h-42.666667a85.333333 85.333333 0 0 1-85.333333 85.333334z m0-170.666667H384v85.333333h256V128z" p-id="21796" fill="#515151"></path></svg>