<?xml version="1.0" standalone="no"?><!DOCTYPE svg PUBLIC "-//W3C//DTD SVG 1.1//EN" "http://www.w3.org/Graphics/SVG/1.1/DTD/svg11.dtd"><svg t="1735783095065" class="icon" viewBox="0 0 1024 1024" version="1.1" xmlns="http://www.w3.org/2000/svg" p-id="16732" xmlns:xlink="http://www.w3.org/1999/xlink" width="200" height="200"><path d="M879.616 403.456c13.824 13.824 24.576 39.936 24.576 59.392v413.184c0 46.592-37.376 83.968-83.968 83.968H428.032c-46.592 0-83.968-37.376-83.968-83.968v-83.968H203.776c-46.592 0-83.968-37.376-83.968-83.968V203.776c0-46.592 37.376-83.968 83.968-83.968h116.736c11.776-32.768 42.496-55.808 79.36-55.808s67.584 23.552 79.36 55.808h116.736c46.592 0 83.968 37.376 83.968 83.968v83.968h49.152c19.456 0 45.568 11.264 59.392 24.576l91.136 91.136z m-39.936 39.424l-90.624-90.624c-3.072-3.072-8.704-6.144-12.8-7.168v111.104h111.104c-1.024-4.096-4.608-10.24-7.68-13.312zM399.872 116.736c-17.408 0-31.744 14.336-31.744 31.744s14.336 31.744 31.744 31.744 31.744-14.336 31.744-31.744-14.336-31.744-31.744-31.744z m-196.096 619.52h139.776V372.224c0-46.592 37.376-83.968 83.968-83.968h196.096V203.776c0-15.36-12.288-28.16-28.16-28.16H479.232c-11.776 32.768-42.496 55.808-79.36 55.808s-67.584-23.552-79.36-55.808H203.776c-15.36 0-28.16 12.288-28.16 28.16v503.808c0.512 15.872 12.8 28.16 28.16 28.672z m616.448 167.936c15.36 0 28.16-12.288 28.16-28.16V512H721.92c-23.04 0-41.984-18.944-41.984-41.984V344.064H428.032c-15.36 0-28.16 12.288-28.16 28.16v503.808c0 15.36 12.288 28.16 28.16 28.16h392.192z" p-id="16733" fill="#515151"></path></svg>